<svg width="188" height="179" viewBox="0 0 188 179" fill="none" xmlns="http://www.w3.org/2000/svg">
<path d="M186.765 169.695C187.271 170.538 187.524 171.635 187.524 172.984C187.524 174.164 186.933 175.345 185.753 176.526C184.741 177.537 183.476 178.043 181.958 178.043H125.037C120.484 178.043 117.026 176.104 114.665 172.225L92.6556 138.325L71.6581 172.225C69.297 176.104 65.8395 178.043 61.2859 178.043H6.13595C4.61806 178.043 3.26882 177.537 2.08824 176.526C1.07632 175.345 0.570356 174.164 0.570356 172.984C0.570356 171.635 0.823337 170.538 1.3293 169.695L54.4554 87.4761L6.64191 9.3049C6.13595 8.29298 5.88296 7.19673 5.88296 6.01616C5.88296 4.83557 6.38893 3.73932 7.40085 2.7274C8.58143 1.54681 9.93067 0.956519 11.4486 0.956519H66.3455C71.0678 0.956519 74.6096 3.0647 76.9707 7.28106L94.6794 38.1448L113.906 7.28106C116.267 3.0647 119.809 0.956519 124.531 0.956519H176.898C178.416 0.956519 179.681 1.54681 180.693 2.7274C181.874 3.73932 182.464 4.9199 182.464 6.26913C182.464 7.44971 182.211 8.46163 181.705 9.3049L132.88 86.7172L186.765 169.695Z" fill="white"/>
</svg>
