<svg width="117" height="132" viewBox="0 0 117 132" fill="none" xmlns="http://www.w3.org/2000/svg">
<path d="M58.0863 7.2802V16.1345C69.8921 5.67798 83.0471 0.449702 97.5514 0.449702H109.694C111.55 0.449702 113.152 1.12432 114.501 2.47356C115.85 3.82279 116.525 5.42501 116.525 7.2802V46.7453C116.525 48.6005 115.85 50.2027 114.501 51.5519C113.152 52.9012 111.55 53.5758 109.694 53.5758H77.0599C72.5062 53.5758 68.8802 54.672 66.1817 56.8645C63.6519 58.8884 62.2183 61.6712 61.881 65.2129V125.17C61.881 127.025 61.2064 128.627 59.8572 129.976C58.5079 131.325 56.9057 132 55.0505 132H6.98407C5.12887 132 3.52665 131.325 2.17742 129.976C0.828187 128.627 0.153571 127.025 0.153571 125.17V7.2802C0.153571 5.42501 0.828187 3.82279 2.17742 2.47356C3.52665 1.12432 5.12887 0.449702 6.98407 0.449702H51.2558C53.111 0.449702 54.7132 1.12432 56.0624 2.47356C57.4117 3.82279 58.0863 5.42501 58.0863 7.2802Z" fill="white"/>
</svg>
