<svg width="285" height="73" viewBox="0 0 285 73" fill="none" xmlns="http://www.w3.org/2000/svg">
<path fill-rule="evenodd" clip-rule="evenodd" d="M199.853 63.87H184.038V48.635C183.086 45.6041 177.418 45.8793 177.418 49.1552C177.418 49.4443 177.397 49.653 177.359 49.7922V60.3347C177.359 62.2155 176.618 63.9149 175.333 65.1998C174.049 66.4847 172.349 67.2252 170.468 67.2252H166.057C165.878 69.0056 164.932 70.3169 164.128 71.1207C162.854 72.3952 161.212 72.9999 159.551 72.9999H141.74C138.675 72.9999 136.057 71.5513 134.442 68.947L131.703 64.7288L129.122 68.8965C127.509 71.5325 124.877 72.9999 121.792 72.9999H104.536C102.886 72.9999 101.364 72.4123 100.149 71.3707L99.8688 71.1307L99.6287 70.8507C98.8069 69.8918 97.9996 68.4572 97.9996 66.6222C97.9996 66.4319 98.0063 66.2304 98.0226 66.0202C94.8275 67.3191 91.3331 68.0347 87.6715 68.0347C87.5867 68.0347 87.502 68.0343 87.4174 68.0335L87.6127 68.2289C81.9923 68.2289 79.4772 67.3749 76.6703 66.4219C73.1268 65.2188 69.1184 63.8578 57.8101 63.8578L57.8658 63.5884H43.8963L39.0831 43.5264C38.8404 42.5017 38.5977 41.3422 38.355 40.0479L37.627 36.084C37.4112 34.7627 37.2225 33.5493 37.0607 32.4437C36.8989 31.3382 36.7776 30.4753 36.6967 29.8551H36.454C36.3731 30.4753 36.2383 31.3517 36.0495 32.4842C35.8607 33.5898 35.645 34.8167 35.4023 36.1649C35.1597 37.5132 34.89 38.8884 34.5934 40.2906C34.3237 41.6658 34.0541 42.9466 33.7844 44.1331L29.133 63.5884H12.509L0.0107422 17.7613H15.583L19.3042 35.356C19.5739 36.6503 19.8435 38.2008 20.1132 40.0074C20.4098 41.7871 20.666 43.6073 20.8817 45.4679C21.1244 47.3015 21.2862 48.9463 21.367 50.4025H21.6097C21.6637 49.2969 21.785 48.0295 21.9738 46.6004C22.1895 45.1443 22.4187 43.7016 22.6614 42.2725C22.931 40.8433 23.1737 39.5895 23.3894 38.5109C23.6051 37.4053 23.7535 36.6503 23.8343 36.2458L28.0813 17.7613H45.5547L49.4376 36.4885C49.6803 37.5401 49.95 38.8884 50.2466 40.5333C50.5702 42.1512 50.8668 43.8499 51.1364 45.6296C51.4331 47.3824 51.6488 48.9733 51.7836 50.4025H52.0263C52.1341 48.9194 52.2959 47.2341 52.5117 45.3465C52.7274 43.459 52.9701 41.6253 53.2397 39.8456C53.5363 38.039 53.8195 36.5424 54.0891 35.356L58.1339 17.7613H66.1474C71.1515 17.1864 74.4205 16.0897 77.0951 15.139C80.351 13.7814 83.9237 13.0317 87.6715 13.0317C92.0299 13.0317 96.1515 14.0455 99.8133 15.8502C99.7114 15.3636 99.6619 14.8705 99.6619 14.3776C99.6619 12.4751 100.529 10.9705 101.541 9.95826C102.711 8.78845 104.318 7.99988 106.198 7.99988H123.375C124.849 7.99988 126.368 8.33667 127.767 9.16924C129.151 9.99292 130.161 11.1491 130.869 12.4053L132.41 15.0915L134.138 12.3178C134.844 11.0955 135.838 9.97376 137.19 9.16924C138.589 8.33667 140.108 7.99988 141.582 7.99988H157.968C159.752 7.99988 161.362 8.71875 162.546 9.95364C163.665 11.0234 164.504 12.5639 164.504 14.4567C164.504 15.1844 164.394 15.9795 164.105 16.7762H169.288C169.851 16.7762 170.399 16.8426 170.923 16.9702L171.309 16.9711C180.151 16.9914 183.376 16.9988 184.038 13.5014V0.933594H199.853V63.87ZM153.393 34.0309L161.27 21.5421H169.288C169.458 21.5421 169.62 21.5602 169.776 21.5965C170.151 21.6835 170.487 21.8753 170.783 22.1716C171.203 22.5913 171.413 23.0896 171.413 23.6667V26.4207C172.661 25.3146 173.959 24.3966 175.305 23.6667C175.589 23.5123 175.876 23.3664 176.165 23.2288C178.528 22.1044 181.035 21.5421 183.688 21.5421H187.465C188.042 21.5421 188.54 21.752 188.96 22.1716C189.379 22.5913 189.589 23.0896 189.589 23.6667V35.9418C189.589 36.5189 189.379 37.0172 188.96 37.4369C188.907 37.4895 188.853 37.5389 188.798 37.5849C188.442 37.8829 188.033 38.0425 187.572 38.0638C187.557 38.0645 187.542 38.065 187.527 38.0654C187.506 38.066 187.486 38.0662 187.465 38.0662H184.038V38.0664H177.314C175.898 38.0664 174.77 38.4073 173.931 39.0893C173.144 39.7188 172.698 40.5843 172.593 41.686V60.3347C172.593 60.9118 172.383 61.4101 171.963 61.8298C171.544 62.2494 171.045 62.4593 170.468 62.4593H164.736L153.393 44.9921V34.0309ZM109.575 46.6324C110.114 44.6915 110.402 42.646 110.402 40.5332C110.402 40.2745 110.398 40.0169 110.389 39.7604L109.107 37.3266C109.438 37.1516 109.768 36.9726 110.096 36.7895C108.31 26.0169 98.9503 17.8024 87.6715 17.8024C81.3562 17.8024 75.6423 20.3778 71.523 24.5358L66.5011 42.831L68.4377 38.6052C70.1506 39.3902 71.8975 40.0587 73.6678 40.6137L72.1671 45.4012C70.217 44.7899 68.2914 44.0544 66.4022 43.1914L65.6161 46.0552C68.0832 55.9406 77.0221 63.264 87.6715 63.264C93.216 63.264 98.2968 61.2789 102.242 57.9807L109.575 46.6324ZM218.425 64.6789C213.706 64.6789 209.823 62.67 206.776 58.6522C203.729 54.6344 202.206 48.7561 202.206 41.0171C202.206 33.1973 203.77 27.2784 206.898 23.2606C210.026 19.2428 214.07 17.234 219.032 17.234C221.081 17.234 222.847 17.5306 224.33 18.1238C225.814 18.717 227.094 19.526 228.173 20.5507C229.279 21.5484 230.236 22.6809 231.045 23.9482H231.368C231.18 22.7887 231.004 21.1978 230.843 19.1754C230.681 17.1261 230.6 15.1307 230.6 13.1892V0.933594H246.536V63.87H234.604L231.207 58.086H230.6C229.872 59.2994 228.955 60.405 227.849 61.4027C226.771 62.4004 225.45 63.1958 223.886 63.7891C222.349 64.3823 220.528 64.6789 218.425 64.6789ZM224.897 52.1806C227.431 52.1806 229.211 51.3852 230.236 49.7942C231.287 48.1763 231.854 45.7225 231.935 42.4328V41.1789C231.935 37.5656 231.422 34.8017 230.398 32.8872C229.4 30.9457 227.512 29.9749 224.735 29.9749C222.847 29.9749 221.283 30.8917 220.043 32.7254C218.803 34.559 218.182 37.4038 218.182 41.2598C218.182 45.0619 218.803 47.8393 220.043 49.592C221.31 51.3177 222.928 52.1806 224.897 52.1806ZM282.986 57.5197C284.28 55.2816 284.927 52.7065 284.927 49.7942C284.927 47.0977 284.496 44.8731 283.633 43.1204C282.797 41.3677 281.503 39.8846 279.75 38.6712C278.024 37.4308 275.827 36.2713 273.157 35.1927C270.622 34.168 268.694 33.3725 267.373 32.8063C266.052 32.24 265.149 31.7411 264.663 31.3097C264.205 30.8783 263.976 30.3794 263.976 29.8131C263.976 29.1929 264.313 28.7211 264.987 28.3975C265.661 28.0739 266.618 27.9121 267.859 27.9121C269.234 27.9121 271.081 28.2222 273.4 28.8424C275.719 29.4626 278.011 30.285 280.276 31.3097L284.604 21.1169C281.745 19.8496 278.982 18.8923 276.312 18.2451C273.642 17.571 270.798 17.234 267.778 17.234C262.088 17.234 257.517 18.3665 254.066 20.6315C250.614 22.8966 248.889 26.2672 248.889 30.7434C248.889 33.2512 249.307 35.3679 250.142 37.0937C250.978 38.8195 252.232 40.3025 253.904 41.5429C255.603 42.7833 257.72 43.9293 260.254 44.981C262.816 46.0326 264.798 46.8685 266.2 47.4887C267.629 48.1089 268.614 48.6617 269.153 49.1471C269.719 49.6055 270.002 50.1717 270.002 50.8459C270.002 51.6278 269.584 52.2211 268.748 52.6256C267.939 53.0031 266.645 53.1918 264.865 53.1918C263.14 53.1918 260.78 52.9087 257.787 52.3424C254.794 51.7492 251.855 50.7919 248.97 49.4706V62.1307C251.612 63.1284 254.214 63.8026 256.776 64.1531C259.365 64.5037 262.29 64.6789 265.553 64.6789C270.191 64.6789 273.926 64.0452 276.757 62.7779C279.615 61.5105 281.692 59.7578 282.986 57.5197ZM84.6857 42.6148C86.5606 42.7217 88.437 42.7143 90.303 42.5956L90.6217 47.6027C88.5562 47.7342 86.478 47.7425 84.3999 47.6239L84.6857 42.6148ZM76.369 41.3685C78.1937 41.8176 80.0373 42.1503 81.8884 42.3696L81.2982 47.3521C79.2448 47.1088 77.1978 46.7395 75.17 46.2404L76.369 41.3685ZM93.1016 42.3331C94.9649 42.102 96.8109 41.7599 98.6275 41.3099L99.8338 46.18C97.8235 46.678 95.7809 47.0566 93.7191 47.3123L93.1016 42.3331ZM101.334 40.5528C103.125 39.9936 104.879 39.3277 106.584 38.5585L108.647 43.1321C106.756 43.9851 104.812 44.7229 102.83 45.3419L101.334 40.5528ZM159.472 15.4066L144.194 39.6291L161.055 65.5932C161.213 65.857 161.292 66.2 161.292 66.6222C161.292 66.9916 161.108 67.361 160.738 67.7304C160.422 68.0471 160.026 68.2054 159.551 68.2054H141.74C140.315 68.2054 139.233 67.5985 138.495 66.3847L131.608 55.7775L125.038 66.3847C124.299 67.5985 123.217 68.2054 121.792 68.2054H104.536C104.061 68.2054 103.638 68.0471 103.269 67.7304C102.952 67.361 102.794 66.9916 102.794 66.6222C102.794 66.2 102.873 65.857 103.032 65.5932L119.655 39.8666L104.694 15.4066C104.536 15.09 104.456 14.747 104.456 14.3776C104.456 14.0082 104.615 13.6651 104.931 13.3485C105.301 12.9791 105.723 12.7944 106.198 12.7944H123.375C124.853 12.7944 125.961 13.454 126.7 14.7734L132.241 24.4307L138.257 14.7734C138.996 13.454 140.104 12.7944 141.582 12.7944H157.968C158.443 12.7944 158.838 12.9791 159.155 13.3485C159.524 13.6651 159.709 14.0345 159.709 14.4567C159.709 14.8261 159.63 15.1428 159.472 15.4066Z" fill="white"/>
</svg>
